<svg xmlns="http://www.w3.org/2000/svg" xmlns:xlink="http://www.w3.org/1999/xlink" width="500" zoomAndPan="magnify" viewBox="0 0 375 127.500001" height="170" preserveAspectRatio="xMidYMid meet" version="1.0"><defs><g/><clipPath id="92d3cadc62"><path d="M 0.730469 5 L 374.265625 5 L 374.265625 123 L 0.730469 123 Z M 0.730469 5 " clip-rule="nonzero"/></clipPath><clipPath id="5a8b08e552"><path d="M 318.375 11.285156 L 337.800781 11.285156 L 337.800781 116.621094 L 318.375 116.621094 Z M 318.375 11.285156 " clip-rule="nonzero"/></clipPath></defs><g clip-path="url(#92d3cadc62)"><path fill="#2c3e50" d="M 374.257812 64.105469 C 374.257812 31.933594 348.167969 5.804688 315.878906 5.5625 L 59.125 5.5625 C 26.832031 5.5625 0.742188 31.933594 0.742188 64.105469 C 0.742188 96.28125 26.832031 122.648438 59.125 122.648438 L 316.039062 122.648438 C 348.167969 122.648438 374.257812 96.28125 374.257812 64.105469 M 315.878906 112.246094 L 58.960938 112.246094 C 32.390625 112.246094 10.890625 90.714844 10.890625 64.105469 C 10.890625 37.496094 32.390625 15.964844 58.960938 15.964844 L 315.878906 15.964844 C 342.371094 15.964844 363.871094 37.496094 363.871094 64.105469 C 363.871094 90.714844 342.371094 112.246094 315.878906 112.246094 " fill-opacity="1" fill-rule="nonzero"/></g><g fill="#2c3e50" fill-opacity="1"><g transform="translate(35.73294, 92.743394)"><g><path d="M 35.253906 -53.90625 C 32.34375 -54.21875 30.140625 -54.296875 26.753906 -54.296875 L 6.296875 -54.296875 L 6.296875 0 L 20.460938 0 L 20.460938 -19.042969 L 26.753906 -19.042969 C 30.140625 -19.042969 32.34375 -19.121094 35.253906 -19.4375 C 43.125 -20.382812 50.285156 -25.96875 50.285156 -36.671875 C 50.285156 -47.371094 43.125 -52.960938 35.253906 -53.90625 Z M 29.746094 -30.140625 C 28.722656 -30.0625 27.464844 -30.0625 25.96875 -30.0625 L 20.460938 -30.0625 L 20.460938 -43.28125 L 25.96875 -43.28125 C 27.464844 -43.28125 28.722656 -43.28125 29.746094 -43.203125 C 33.367188 -42.886719 35.492188 -40.761719 35.492188 -36.671875 C 35.492188 -32.578125 33.367188 -30.453125 29.746094 -30.140625 Z M 29.746094 -30.140625 "/></g></g></g><g fill="#2c3e50" fill-opacity="1"><g transform="translate(86.405478, 92.743394)"><g><path d="M 36.828125 -14.085938 L 41.390625 0 L 56.816406 0 L 37.222656 -54.296875 L 19.910156 -54.296875 L 0.316406 0 L 15.34375 0 L 19.910156 -14.085938 Z M 28.40625 -41.785156 L 33.445312 -25.101562 L 23.371094 -25.101562 Z M 28.40625 -41.785156 "/></g></g></g><g fill="#2c3e50" fill-opacity="1"><g transform="translate(142.035124, 92.743394)"><g><path d="M 48.632812 -13.21875 C 47.84375 -19.75 45.800781 -23.921875 40.132812 -25.96875 C 47.371094 -28.09375 51.070312 -32.65625 51.070312 -39.503906 C 51.070312 -49.105469 44.226562 -52.960938 36.355469 -53.90625 C 33.445312 -54.21875 31.242188 -54.296875 27.855469 -54.296875 L 6.296875 -54.296875 L 6.296875 0 L 20.460938 0 L 20.460938 -20.617188 L 23.609375 -20.617188 C 25.183594 -20.617188 26.519531 -20.617188 28.09375 -20.539062 C 31.714844 -20.300781 34.074219 -16.839844 34.78125 -10.859375 C 35.253906 -7.003906 36.042969 -3.855469 37.300781 0 L 52.722656 0 C 50.597656 -3.226562 49.339844 -7.082031 48.632812 -13.21875 Z M 20.460938 -30.847656 L 20.460938 -43.28125 L 25.96875 -43.28125 C 27.464844 -43.28125 28.722656 -43.28125 29.746094 -43.203125 C 33.367188 -42.886719 36.277344 -41.628906 36.277344 -37.0625 C 36.277344 -32.5 32.972656 -31.242188 29.351562 -30.925781 C 28.328125 -30.847656 27.070312 -30.847656 25.574219 -30.847656 Z M 20.460938 -30.847656 "/></g></g></g><g fill="#2c3e50" fill-opacity="1"><g transform="translate(195.697662, 92.743394)"><g><path d="M 34.625 -28.722656 L 58.074219 -54.296875 L 41.15625 -54.296875 L 20.460938 -30.296875 L 20.460938 -54.296875 L 6.296875 -54.296875 L 6.296875 0 L 20.460938 0 L 20.460938 -16.683594 L 24.316406 -20.933594 L 39.660156 0 L 57.367188 0 Z M 34.625 -28.722656 "/></g></g></g><g fill="#2c3e50" fill-opacity="1"><g transform="translate(254.15992, 92.743394)"><g><path d="M 20.460938 0 L 20.460938 -54.296875 L 6.296875 -54.296875 L 6.296875 0 Z M 20.460938 0 "/></g></g></g><g fill="#2c3e50" fill-opacity="1"><g transform="translate(278.866725, 92.743394)"><g><path d="M 58.234375 0 L 58.234375 -54.296875 L 44.066406 -54.296875 L 44.066406 -31.082031 C 44.066406 -27.9375 44.148438 -22.347656 44.539062 -16.839844 L 23.921875 -54.296875 L 6.296875 -54.296875 L 6.296875 0 L 20.460938 0 L 20.460938 -22.425781 C 20.460938 -25.574219 20.460938 -30.375 19.988281 -35.882812 L 39.738281 0 Z M 58.234375 0 "/></g></g></g><g clip-path="url(#5a8b08e552)"><path fill="#2c3e50" d="M 318.375 11.3125 L 337.800781 11.3125 L 337.800781 116.59375 L 318.375 116.59375 L 318.375 11.3125 " fill-opacity="1" fill-rule="nonzero"/></g></svg>